<?xml version="1.0" encoding="UTF-8"?>
<svg xmlns="http://www.w3.org/2000/svg" version="1.1" viewBox="0 0 85.7 162.8">
  <defs>
    <style>
      .cls-1 {
        fill: #fff;
        stroke: #000;
        stroke-width: 3px;
      }

      .cls-1, .cls-2 {
        stroke-miterlimit: 10;
      }

      .cls-2 {
        stroke: #fff;
        stroke-width: 2px;
      }
    </style>
  </defs>
  <!-- Generator: Adobe Illustrator 28.7.1, SVG Export Plug-In . SVG Version: 1.2.0 Build 142)  -->
  <g>
    <g id="Capa_2">
      <path class="cls-2" d="M19,114s-11.4,11.1-10.9,17.1c0,0-6.2,3.4-6.2,6.2v24.4l79.9-1.2v-20.1s-.4-7.7-5.6-7.7c-.8-2.6-1.9-5.4-3.5-8.4-2.3-4.6-4.9-8.3-7.2-11.1-15.5.3-31,.6-46.5.9h0Z"/>
      <path class="cls-1" d="M41.5,2c1.2.8,4.1,2.9,5.8,6.8,2,4.5,1.3,8.6.9,10,14.1,14,30.8,30.8,12.7,50.5-11.2,16.1.5,46.7,15,55.4,3.1,3.3,9.2,10.1,7.5,12.6-.1,0-.3.2-.6.4-12.2,7.5-31.8,6.4-37.1-2.3-3.7-6,.8-13.3-1.5-14.3-3.5-1.6-11.1,17.7-27.6,22.2-5.2,1.4-9.9,1-13.3.3-1.1-3.5-2.5-9.1-.4-14.7,1.9-5.2,6.5-8.1,12.1-15.9,1-1.5,11.1-25.8,10.1-27.5-1.5-1.5-14.7-15.3-11.8-35.5,2.9-20.6,19.9-30.2,21.7-31.1,2.1-5.6,4.3-11.1,6.4-16.7Z"/>
      <ellipse class="cls-1" cx="27.7" cy="50" rx="2.9" ry="11.2"/>
      <ellipse class="cls-1" cx="39.9" cy="50" rx="2.9" ry="11.2"/>
      <ellipse class="cls-1" cx="52" cy="50" rx="2.9" ry="11.2"/>
      <ellipse class="cls-1" cx="38.5" cy="144.1" rx="6.5" ry="7.4"/>
    </g>
  </g>
</svg>