<?xml version="1.0" encoding="UTF-8"?>
<svg xmlns="http://www.w3.org/2000/svg" version="1.1" viewBox="0 0 97.6 148.5">
  <defs>
    <style>
      .cls-1 {
        stroke-width: 6.7px;
      }

      .cls-1, .cls-2 {
        fill: #fff;
        stroke: #000;
      }

      .cls-1, .cls-2, .cls-3 {
        stroke-miterlimit: 10;
      }

      .cls-2 {
        stroke-width: 3.9px;
      }

      .cls-3 {
        stroke: #fff;
        stroke-width: 1.9px;
      }
    </style>
  </defs>
  <!-- Generator: Adobe Illustrator 28.7.1, SVG Export Plug-In . SVG Version: 1.2.0 Build 142)  -->
  <g>
    <g id="Capa_2">
      <g id="Capa_1-2">
        <g>
          <path class="cls-3" d="M32,101.9s-11,10.8-10.6,16.6c0,0-6,3.2-6,6v23.5l77.2-1.2v-19.5s-.4-7.4-5.4-7.4c-.8-2.5-1.9-5.2-3.4-8.2-2.2-4.4-4.8-8-7-10.7-15,.3-29.9.6-44.9.8h0Z"/>
          <path class="cls-2" d="M85.5,45.3l-3.9-8.1,2.1-9.7-11.6-2.1,3.3-11.2-17.1-2.7c-.1-.2-.3-.3-.5-.4l-5-2.7-5-2.7c-.3-.2-.6-.2-.9-.2h0c-.5,0-.9.2-1.3.5-.6.6-.8,1.4-.5,2.2,2.4,5.7,2.8,10,1.1,12.1-.9,1.1-2,1.4-5.3,2.3-.9.2-1.9.5-3.1.8-4.7,1.3-16.1-12.7-20.6-10.6-.7.3,5.7,16.7,5.7,17.5s0,1,0,1.6c.2,2.7.2,4.8-1.4,6-3,2.2-17-4.6-19.2,11.9-.8.5,1.3,10.6,1.6,11.5,6.5,16.8,11.2,16,11.3,15.9.8-.1,5.8-2.3,9.8-4.1,2.5-1.1-.4-10,1.4-10.5,1.1.7,3.1.8,5.3.8s6.7-.2,10-.7c-1.8,3.7-5.2,10.2-8,15.3-1.6,3-3.1,5.9-4.5,8.4-6.8,13.1-13.2,26.9-18.9,41.2-.3.7-.1,1.5.4,2,.4.4.9.6,1.4.6s.4,0,.6,0c5.8-1.8,11.5-3.9,17-6.3h0c1.5-.7,8.7-3.8,13.2-7.8,0,4.8.5,11,4.4,14.5,2,1.8,4.8,2.7,8.3,2.7s1.9,0,2.9-.2c.6,0,1.2-.5,1.5-1.1s.3-1.3,0-1.8c-.2-.3-4.3-7.1-.8-13.8,1.7-3.3,5.5-6.9,9-6.9s.4,0,.6,0c1.6.2,2.4,1.1,4.5,3.8,1.5,1.9,3.5,4.5,6.8,7.6,2.7,2.6,9.4,8.6,12.7,8.6s1.4-.3,1.8-.6c1.9-1.5.9-3.8-.6-7.3-1.3-3.1-3.3-7.8-4.3-13.9-.9-4.9-.8-8.5-.7-12.4v-.3c.7-29.8,6-23.8-.5-44.7l-3.3-5Z"/>
        </g>
      </g>
      <ellipse class="cls-2" cx="39.1" cy="36.3" rx="5.3" ry="7.1"/>
      <ellipse cx="58.3" cy="42.1" rx="7.8" ry="9"/>
      <ellipse class="cls-1" cx="59.5" cy="23" rx="11.5" ry="1.9" transform="translate(32.9 80.9) rotate(-86.5)"/>
    </g>
  </g>
</svg>