<?xml version="1.0" encoding="UTF-8"?>
<svg xmlns="http://www.w3.org/2000/svg" version="1.1" viewBox="0 0 101.1 143.4">
  <defs>
    <style>
      .cls-1 {
        fill: #fff;
        stroke: #1d1d1b;
        stroke-width: 4.6px;
      }

      .cls-1, .cls-2 {
        stroke-miterlimit: 10;
      }

      .cls-2 {
        fill: #1d1d1b;
        stroke: #fff;
        stroke-width: 4.1px;
      }
    </style>
  </defs>
  <!-- Generator: Adobe Illustrator 28.7.1, SVG Export Plug-In . SVG Version: 1.2.0 Build 142)  -->
  <g>
    <g id="Capa_2">
      <g id="Capa_1-2">
        <path class="cls-1" d="M29.5,94.7s-11.4,11.1-10.9,17.1c0,0-6.2,3.4-6.2,6.2v24.4l79.9-1.2v-20.1s-.4-7.7-5.6-7.7c-.8-2.6-1.9-5.4-3.5-8.4-2.3-4.6-4.9-8.3-7.2-11.1-15.5.3-31,.6-46.5.9h0Z"/>
      </g>
      <polygon class="cls-1" points="61.7 40.8 40 41.2 28.9 22.6 39.4 3.7 61 3.3 72.2 21.9 61.7 40.8"/>
      <path class="cls-2" d="M34,48.9s34.2-1.3,35.5,0,6.5,36.3,6.5,36.3H27.7l6.4-36.3Z"/>
      <circle class="cls-1" cx="52.4" cy="66.8" r="12.9"/>
    </g>
  </g>
</svg>