<?xml version="1.0" encoding="UTF-8"?>
<svg xmlns="http://www.w3.org/2000/svg" version="1.1" viewBox="0 0 94.9 177.2">
  <defs>
    <style>
      .cls-1 {
        stroke-width: 1.4px;
      }

      .cls-1, .cls-2, .cls-3 {
        stroke: #fff;
      }

      .cls-1, .cls-3 {
        fill: none;
        stroke-miterlimit: 10;
      }

      .cls-4 {
        stroke: #1d1d1b;
      }

      .cls-4, .cls-5 {
        fill: #fff;
      }

      .cls-4, .cls-2 {
        stroke-miterlimit: 10;
        stroke-width: 2px;
      }

      .cls-2 {
        fill: #1d1d1b;
      }

      .cls-3 {
        stroke-width: 2px;
      }
    </style>
  </defs>
  <!-- Generator: Adobe Illustrator 28.7.1, SVG Export Plug-In . SVG Version: 1.2.0 Build 142)  -->
  <g>
    <g id="Capa_2">
      <g id="Capa_1-2">
        <g>
          <path class="cls-4" d="M26,128.4s-11.4,11.1-10.9,17.1c0,0-6.2,3.4-6.2,6.2v24.4l79.9-1.2v-20.1s-.4-7.7-5.6-7.7c-.8-2.6-1.9-5.4-3.5-8.4-2.3-4.6-4.9-8.3-7.2-11.1-15.5.3-31,.6-46.5.9h0Z"/>
          <path class="cls-2" d="M19.6,168.5c-3.1,3-16.3-1.9-18.2-9.8-.3-1.5-1.4-5.1,9.6-18.3,4.1-5,9.2-11.1,15.3-19.4,7.8-10.6,9.3-14.1,9.9-17.9,1.2-8.5-2-17.5-9.6-26.9-9.7,12.5-13.4-12-13.2-12.3,1.4-3,16.7,2.3,15.3-4.7-1.9-9.3-9.5-16.9-19.9-19.8-.4-.1-.6-.4-.7-.8,0,0,0-.2,0-.3,0-.4.3-.7.4-.7.6-.6,2.1-13.8,3.2-13.9.9-.1,1.8,8.6,5,9.1.8.1.9-.5,3.4-1.2,3.1-.9,6.3-1.4,9.6-1.4s3.5.1,5.3.4c.7-2.3,1.8-4.4,3.1-6.3,1.3-1.8,2.8-3.5,4.6-4.9-.9-2.1-2.9-8-.6-12.7,1.4-2.8,4-4.6,7.8-5.3.9-.2,1.8-.3,2.7-.3,2,0,3.8.5,5.3,1.5,4.7,3,6.1,10.1,3.5,16.7,1.6,1.5,2.9,3.2,3.9,5.1,1.1,2,1.8,4.1,2.2,6.4.4,0,1.1,0,1.8,0,.7,0,7.2-.2,11-1.6,6.6-2.4,8.8-9.5,10.1-8.8,1.2.6-2.7,6-.3,11,1.4,2.9,4.6,4.8,3.9,7-.2.5-.4,1-.7,1.1-10.6,2.8-18.3,10.8-19.7,20.2-.1,1,0,1.6.4,2,2.3,2.2,10.2-5.2,13.8-3,4.1,2.5,1.8,17.5-4,19.2-2.6.7-3.8-1.8-6.7-1.4-6.1.7-11.3,12.6-10.7,23.4.5,8.2,5.7,13.9,11.2,19.9,6,6.6,12.9,14,14.3,25.9,1.1,9.3-1.5,17.6-3.3,19.7-.4.5-.9.7-1.4.7-1.4,0-1.7-1.6-2.1-4.4-.6-4.1-1.6-11-6.2-17.6-1.7-2.4-7.7-10.3-14.7-10.3s-.9,0-1.4.1c-6.9,1.4-4.6,15.5-10.9,20.5-9.2,7.3-30.5-10.1-35.4-4.7-3.6,4.1,6.5,15.8,3.1,19.1Z"/>
        </g>
      </g>
      <ellipse class="cls-3" cx="42.2" cy="58" rx="5.3" ry="14.5"/>
      <ellipse class="cls-1" cx="59" cy="60.9" rx="5" ry="7.4"/>
      <ellipse class="cls-5" cx="51.7" cy="11.3" rx="4.2" ry="5.1"/>
      <path class="cls-5" d="M61.4,28.1c0,2.2-6,3.8-9.7,3.8s-9.6-1.8-9.6-4,5.8-7,9.6-7,9.7,5,9.7,7.2Z"/>
    </g>
  </g>
</svg>