<?xml version="1.0" encoding="UTF-8"?>
<svg xmlns="http://www.w3.org/2000/svg" version="1.1" viewBox="0 0 85.3 203.5">
  <defs>
    <style>
      .cls-1 {
        stroke: #1d1d1b;
      }

      .cls-1, .cls-2 {
        fill: #fff;
      }

      .cls-1, .cls-3 {
        stroke-width: 2px;
      }

      .cls-1, .cls-3, .cls-4, .cls-5 {
        stroke-miterlimit: 10;
      }

      .cls-3, .cls-4, .cls-5 {
        fill: #1d1d1b;
        stroke: #fff;
      }

      .cls-4 {
        stroke-width: 2.5px;
      }

      .cls-5 {
        stroke-width: 3px;
      }
    </style>
  </defs>
  <!-- Generator: Adobe Illustrator 28.7.1, SVG Export Plug-In . SVG Version: 1.2.0 Build 142)  -->
  <g>
    <g id="Capa_2">
      <g id="Capa_1-2">
        <g>
          <path class="cls-1" d="M19.3,154.7s-11.4,11.1-10.9,17.1c0,0-6.2,3.4-6.2,6.2v24.4l79.9-1.2v-20.1s-.4-7.7-5.6-7.7c-.8-2.6-1.9-5.4-3.5-8.4-2.3-4.6-4.9-8.3-7.2-11.1-15.5.3-31,.6-46.5.9h0Z"/>
          <path class="cls-3" d="M45.3,190.7c-.5,0-1.2-.2-2.9-2-4.6-5-12.7-18.4-11.8-28v-.8c-.7.9-1.8,2.6-2.8,4.2-2.4,3.8-5.6,8.9-9.4,12.8-1,1.1-10,10.8-14.5,10.8s-1.1-.1-1.5-.4c-2.7-1.7-1.1-7.6.8-14.4l1.6-5.6c-4.4-17.4-2-28.8,1.1-36,2.4-5.6,7.9-14.7,6.4-26-.1-.8-.2-1-.4-2-.2-1.1-.7-3.9-.8-4.3-.5-2.8-3.3-5.6-4.4-7.2-3.4-4.9,1-9.1.3-19.5-.7-9.4-4.8-13.8-2.4-15.9,1.8-1.7,6.3-.9,9.1.8,2.2,1.3,2.7,2.9,3.2,2.7,2-.7-7.5-26.1-3.8-28.8,1.1-.8,4.7,1,17.8,15.1-.6-.7-1.3-1.9-1.9-3.4-.6-1.5-.9-3.3-.6-5.3.1-1,.5-3.9,2.8-5.9.9-.8,1.8-1.2,2.5-1.5.7-.3,1.2-.5,1.5-1.1.1-.2.4-.7.3-4,0-1.5-.2-3.1-.4-4.6,0,0-8.4.1-8.4.1-.3,0-.5-.1-.7-.3-.2-.2-.3-.5-.3-.7l.3-8.7c0-.5.4-.9,1-1l8-.3-.6-7.3c0-.3,0-.6.3-.8.2-.2.5-.3.7-.3h9.6c.5,0,1,.4,1,1v9h8.6c.5,0,1,.4,1,1v7.7c0,.6-.5,1-1,1h-8.6v7.4c.6.2,5.5,2.2,6.9,7.4.9,3.1,0,5.8-.4,6.8,17.7-15.7,23-19.3,23.7-18.6,1.3,1.3-10.2,20.2-12.9,30.1-.5,1.9-1.3,5.1,0,6.2,3.2,2.5,15.3-8.8,16.9-7.2,1.5,1.5-10,13.5-7,18,1.4,2,4.7,1.3,5.3,3.2.6,2-2.5,4.8-5.5,7v.2c-8.4,14.6-8,23.9-5.8,29.9,2.4,6.2,7.7,11,6.6,18.5-.7,4.8-3.1,4.4-4.3,9.1-2.9,10.9,7.8,24.9,11.5,33.1,2.8,6.4,3.7,8.3,2.2,9.1-.2.1-.4.2-.7.2-1.1,0-2.1-1.1-4.3-3.6-2.2-2.5-5.5-6.2-7.6-6.2s-.3,0-.5,0c-1.4.5-1.8,3.7-2.1,6-.3,2.4-.5,4.2-2,4.3h-.1c-1.2,0-2.7-1-5.7-12.5-1-3.9-2-8.4-2.5-10.6-1.4.4-9.4,3-13.5,11.2-5.1,10.2.2,20.1.7,20.9Z"/>
        </g>
      </g>
      <ellipse class="cls-5" cx="51" cy="84.2" rx="8.8" ry="15.6"/>
      <ellipse class="cls-4" cx="28.6" cy="87.9" rx="6.8" ry="7.9"/>
      <path class="cls-3" d="M85.3,53.8"/>
      <circle class="cls-2" cx="40.3" cy="37.9" r="6"/>
    </g>
  </g>
</svg>