<?xml version="1.0" encoding="UTF-8"?>
<svg xmlns="http://www.w3.org/2000/svg" version="1.1" viewBox="0 0 87.7 143.1">
  <defs>
    <style>
      .cls-1 {
        fill: #fff;
        stroke: #1d1d1b;
        stroke-width: 4.6px;
      }

      .cls-1, .cls-2, .cls-3 {
        stroke-miterlimit: 10;
      }

      .cls-2 {
        stroke-width: 2.8px;
      }

      .cls-2, .cls-3 {
        fill: #1d1d1b;
        stroke: #fff;
      }

      .cls-3 {
        stroke-width: 3.1px;
      }
    </style>
  </defs>
  <!-- Generator: Adobe Illustrator 28.7.1, SVG Export Plug-In . SVG Version: 1.2.0 Build 142)  -->
  <g>
    <g id="Capa_2">
      <path class="cls-1" d="M82.9,117.2H2.9c2.2-15.8,4.3-32.2,6-49,.9-8.9,1.7-17.6,2.4-26.2C2.4,36.5.3,25.4,4.9,18.8c4.2-5.9,13.3-7.6,18.4-4.5,6.5,4,6.4,15.9,6.9,15.8.4,0-3.1-9.2.6-14.2,4.9-6.6,22.1-5.6,27.2,2.1,3.3,5.1,1,12.6,1.6,12.6.7,0,0-12.5,6.1-15.8,5.1-2.8,15.9.3,18.7,8.8,2.5,7.3-1.8,16-10.1,18.7-.7,8.6-1,18.5-.2,29.4,1.3,18.1,4.9,33.5,8.8,45.4Z"/>
      <ellipse class="cls-1" cx="29.4" cy="53.1" rx="8.1" ry="10"/>
      <ellipse class="cls-1" cx="56.3" cy="55.5" rx="5.7" ry="6.5"/>
      <rect class="cls-2" x="2.5" y="114.8" width="20.6" height="7.9"/>
      <rect class="cls-2" x="23.1" y="114.8" width="20.6" height="7.9"/>
      <rect class="cls-2" x="43.7" y="114.8" width="20.6" height="7.9"/>
      <rect class="cls-2" x="64.4" y="114.8" width="20.6" height="7.9"/>
      <rect class="cls-2" x="56.3" y="124.2" width="20.6" height="7.9"/>
      <rect class="cls-2" x="34.5" y="124.2" width="20.6" height="7.9"/>
      <rect class="cls-2" x="12.7" y="124.2" width="20.6" height="7.9"/>
      <rect class="cls-3" x="58.3" y="133.6" width="26" height="7.9"/>
      <rect class="cls-3" x="30.8" y="133.6" width="26" height="7.9"/>
      <rect class="cls-3" x="3.2" y="133.6" width="26" height="7.9"/>
    </g>
  </g>
</svg>